<svg width="384" height="127" viewBox="0 0 384 127" fill="none" xmlns="http://www.w3.org/2000/svg">
<path d="M82.19 56.35C77.5 56.35 73.7 60.15 73.7 64.84C73.7 69.53 77.5 73.33 82.19 73.33C86.88 73.33 90.68 69.53 90.68 64.84C90.68 60.15 86.88 56.35 82.19 56.35Z" fill="#808080"/>
<path d="M98.49 0H27.68C12.42 0 0.0499878 12.37 0.0499878 27.63V98.44C0.0499878 113.7 12.42 126.07 27.68 126.07H98.49C113.75 126.07 126.12 113.7 126.12 98.44V27.63C126.11 12.37 113.74 0 98.49 0ZM115.05 72.71C115.05 75.65 112.66 78.04 109.72 78.04H102.27V78.65C102.27 88.44 94.33 96.38 84.54 96.38H41.74C31.95 96.38 24.01 88.44 24.01 78.65V78.04H16.45C13.51 78.04 11.12 75.65 11.12 72.71V56.98C11.12 54.04 13.51 51.65 16.45 51.65H24.04C24.55 42.31 32.28 34.9 41.74 34.9H44.89L41.15 20.93C40.62 18.97 41.79 16.96 43.75 16.43L44.12 16.33C46.08 15.8 48.09 16.97 48.62 18.93L52.9 34.9H73.28L77.56 18.93C78.09 16.97 80.1 15.81 82.06 16.33L82.43 16.43C84.39 16.96 85.55 18.97 85.03 20.93L81.29 34.9H84.55C94.01 34.9 101.74 42.31 102.25 51.65H109.73C112.67 51.65 115.06 54.04 115.06 56.98V72.71H115.05Z" fill="#808080"/>
<path d="M44.09 73.33C48.7789 73.33 52.58 69.5289 52.58 64.84C52.58 60.1511 48.7789 56.35 44.09 56.35C39.4011 56.35 35.6 60.1511 35.6 64.84C35.6 69.5289 39.4011 73.33 44.09 73.33Z" fill="#808080"/>
<path d="M199.35 27.4301V80.7601H194.46V73.2901C192.93 75.8301 190.9 77.77 188.39 79.11C185.87 80.45 183.04 81.1201 179.87 81.1201C176.32 81.1201 173.11 80.3101 170.24 78.6801C167.36 77.0501 165.11 74.7801 163.48 71.8501C161.85 68.9301 161.04 65.6 161.04 61.86C161.04 58.12 161.85 54.7901 163.48 51.8701C165.11 48.9501 167.36 46.68 170.24 45.08C173.11 43.48 176.32 42.6701 179.87 42.6701C182.94 42.6701 185.7 43.3101 188.17 44.5701C190.64 45.8401 192.66 47.7 194.24 50.14V27.4301H199.35ZM187.45 74.7501C189.58 73.5301 191.26 71.7901 192.48 69.5401C193.7 67.2901 194.31 64.7201 194.31 61.8501C194.31 58.9701 193.7 56.4101 192.48 54.1601C191.26 51.9101 189.58 50.1701 187.45 48.9501C185.32 47.7301 182.93 47.1201 180.3 47.1201C177.62 47.1201 175.21 47.7301 173.08 48.9501C170.95 50.1701 169.27 51.9101 168.05 54.1601C166.83 56.4101 166.22 58.9801 166.22 61.8501C166.22 64.7201 166.83 67.2901 168.05 69.5401C169.27 71.7901 170.95 73.5301 173.08 74.7501C175.21 75.9701 177.62 76.58 180.3 76.58C182.94 76.59 185.32 75.9801 187.45 74.7501Z" fill="#808080"/>
<path d="M242.9 63.43H211.28C211.57 67.36 213.08 70.53 215.81 72.95C218.54 75.37 221.99 76.58 226.16 76.58C228.51 76.58 230.66 76.16 232.63 75.32C234.59 74.48 236.3 73.25 237.73 71.62L240.61 74.93C238.93 76.94 236.84 78.48 234.32 79.53C231.8 80.58 229.04 81.11 226.02 81.11C222.14 81.11 218.7 80.28 215.71 78.63C212.71 76.98 210.38 74.69 208.7 71.77C207.02 68.85 206.18 65.54 206.18 61.85C206.18 58.16 206.98 54.85 208.59 51.93C210.19 49.01 212.4 46.73 215.2 45.1C218 43.47 221.15 42.66 224.65 42.66C228.15 42.66 231.29 43.47 234.07 45.1C236.85 46.73 239.03 48.99 240.61 51.89C242.19 54.79 242.98 58.11 242.98 61.84L242.9 63.43ZM215.48 50.53C213.01 52.85 211.61 55.88 211.28 59.62H238.09C237.75 55.88 236.35 52.85 233.89 50.53C231.42 48.21 228.34 47.04 224.65 47.04C221.01 47.05 217.95 48.21 215.48 50.53Z" fill="#808080"/>
<path d="M278.91 45.07C281.79 46.68 284.04 48.94 285.67 51.86C287.3 54.78 288.11 58.11 288.11 61.85C288.11 65.59 287.3 68.92 285.67 71.84C284.04 74.76 281.79 77.04 278.91 78.67C276.03 80.3 272.83 81.11 269.28 81.11C266.12 81.11 263.28 80.44 260.76 79.1C258.24 77.76 256.22 75.82 254.69 73.28V80.75H249.8V27.42H254.9V50.13C256.48 47.69 258.51 45.83 260.97 44.56C263.44 43.29 266.2 42.66 269.27 42.66C272.82 42.66 276.03 43.47 278.91 45.07ZM276.11 74.75C278.27 73.53 279.95 71.79 281.18 69.54C282.4 67.29 283.01 64.72 283.01 61.85C283.01 58.97 282.4 56.41 281.18 54.16C279.96 51.91 278.27 50.17 276.11 48.95C273.95 47.73 271.56 47.12 268.92 47.12C266.24 47.12 263.83 47.73 261.7 48.95C259.57 50.17 257.89 51.91 256.67 54.16C255.45 56.41 254.84 58.98 254.84 61.85C254.84 64.72 255.45 67.29 256.67 69.54C257.89 71.79 259.57 73.53 261.7 74.75C263.83 75.97 266.24 76.58 268.92 76.58C271.55 76.59 273.95 75.98 276.11 74.75Z" fill="#808080"/>
<path d="M314.84 78.4501C313.88 79.3101 312.7 79.9701 311.28 80.4301C309.87 80.8801 308.39 81.11 306.86 81.11C303.31 81.11 300.58 80.1501 298.67 78.2301C296.75 76.3101 295.79 73.61 295.79 70.11V47.2601H289.03V42.9501H295.79V34.6801H300.89V42.9501H312.39V47.2601H300.89V69.83C300.89 72.08 301.45 73.8001 302.58 74.9701C303.7 76.1401 305.32 76.7301 307.43 76.7301C308.48 76.7301 309.5 76.5601 310.48 76.2301C311.46 75.9001 312.31 75.4201 313.03 74.7901L314.84 78.4501Z" fill="#808080"/>
<path d="M321.85 79.78C319.05 78.89 316.86 77.78 315.27 76.44L317.57 72.42C319.15 73.67 321.14 74.68 323.53 75.47C325.93 76.26 328.42 76.66 331 76.66C334.45 76.66 337 76.12 338.65 75.04C340.3 73.96 341.13 72.44 341.13 70.48C341.13 69.09 340.67 68 339.76 67.21C338.85 66.42 337.7 65.82 336.31 65.41C334.92 65 333.08 64.61 330.78 64.22C327.71 63.64 325.25 63.06 323.38 62.46C321.51 61.86 319.92 60.84 318.6 59.41C317.28 57.97 316.62 55.99 316.62 53.44C316.62 50.28 317.94 47.69 320.57 45.68C323.2 43.67 326.87 42.66 331.57 42.66C334.01 42.66 336.46 42.98 338.9 43.63C341.34 44.28 343.36 45.13 344.94 46.18L342.71 50.28C339.59 48.12 335.88 47.05 331.57 47.05C328.31 47.05 325.86 47.63 324.2 48.78C322.54 49.93 321.72 51.44 321.72 53.31C321.72 54.75 322.19 55.9 323.12 56.76C324.05 57.62 325.22 58.26 326.61 58.66C328 59.07 329.92 59.49 332.36 59.92C335.38 60.49 337.8 61.07 339.62 61.64C341.44 62.22 343 63.2 344.29 64.59C345.58 65.98 346.23 67.9 346.23 70.34C346.23 73.65 344.85 76.27 342.1 78.21C339.35 80.15 335.52 81.12 330.64 81.12C327.59 81.11 324.65 80.67 321.85 79.78Z" fill="#808080"/>
<path d="M383.12 42.9501L364.22 85.2801C362.69 88.8301 360.91 91.34 358.9 92.83C356.89 94.31 354.47 95.0601 351.64 95.0601C349.82 95.0601 348.12 94.7701 346.54 94.2001C344.96 93.6201 343.59 92.76 342.44 91.61L344.81 87.8C346.73 89.72 349.03 90.6701 351.71 90.6701C353.43 90.6701 354.91 90.1901 356.13 89.2301C357.35 88.2701 358.49 86.6401 359.54 84.3401L361.19 80.6701L344.3 42.9401H349.62L363.85 75.0701L378.08 42.9401H383.12V42.9501Z" fill="#808080"/>
</svg>
