<svg width="384" height="127" viewBox="0 0 384 127" fill="none" xmlns="http://www.w3.org/2000/svg">
<path d="M82.14 56.3501C77.45 56.3501 73.65 60.1501 73.65 64.8401C73.65 69.5301 77.45 73.3301 82.14 73.3301C86.83 73.3301 90.63 69.5301 90.63 64.8401C90.63 60.1501 86.83 56.3501 82.14 56.3501Z" fill="#9372FF"/>
<path d="M98.44 0H27.63C12.37 0 0 12.37 0 27.63V98.44C0 113.7 12.37 126.07 27.63 126.07H98.44C113.7 126.07 126.07 113.7 126.07 98.44V27.63C126.06 12.37 113.69 0 98.44 0ZM115 72.71C115 75.65 112.61 78.04 109.67 78.04H102.22V78.65C102.22 88.44 94.28 96.38 84.49 96.38H41.69C31.9 96.38 23.96 88.44 23.96 78.65V78.04H16.4C13.46 78.04 11.07 75.65 11.07 72.71V56.98C11.07 54.04 13.46 51.65 16.4 51.65H23.99C24.5 42.31 32.23 34.9 41.69 34.9H44.84L41.1 20.93C40.57 18.97 41.74 16.96 43.7 16.43L44.07 16.33C46.03 15.8 48.04 16.97 48.57 18.93L52.85 34.9H73.23L77.51 18.93C78.04 16.97 80.05 15.81 82.01 16.33L82.38 16.43C84.34 16.96 85.5 18.97 84.98 20.93L81.24 34.9H84.5C93.96 34.9 101.69 42.31 102.2 51.65H109.68C112.62 51.65 115.01 54.04 115.01 56.98V72.71H115Z" fill="#9372FF"/>
<path d="M44.04 73.3301C48.7289 73.3301 52.53 69.529 52.53 64.8401C52.53 60.1512 48.7289 56.3501 44.04 56.3501C39.3511 56.3501 35.55 60.1512 35.55 64.8401C35.55 69.529 39.3511 73.3301 44.04 73.3301Z" fill="#9372FF"/>
<path d="M199.31 29.01V82.34H194.42V74.87C192.89 77.41 190.86 79.35 188.35 80.69C185.83 82.03 183 82.7 179.83 82.7C176.28 82.7 173.07 81.89 170.2 80.26C167.32 78.63 165.07 76.36 163.44 73.43C161.81 70.51 161 67.18 161 63.44C161 59.7 161.81 56.37 163.44 53.45C165.07 50.53 167.32 48.26 170.2 46.66C173.07 45.06 176.28 44.25 179.83 44.25C182.9 44.25 185.66 44.89 188.13 46.15C190.6 47.42 192.62 49.28 194.2 51.72V29.01H199.31V29.01ZM187.41 76.33C189.54 75.11 191.22 73.37 192.44 71.12C193.66 68.87 194.27 66.3 194.27 63.43C194.27 60.55 193.66 57.99 192.44 55.74C191.22 53.49 189.54 51.75 187.41 50.53C185.28 49.31 182.89 48.7 180.26 48.7C177.58 48.7 175.17 49.31 173.04 50.53C170.91 51.75 169.23 53.49 168.01 55.74C166.79 57.99 166.18 60.56 166.18 63.43C166.18 66.3 166.79 68.87 168.01 71.12C169.23 73.37 170.91 75.11 173.04 76.33C175.17 77.55 177.58 78.16 180.26 78.16C182.9 78.17 185.28 77.56 187.41 76.33Z" fill="#9372FF"/>
<path d="M242.86 65.01H211.24C211.53 68.94 213.04 72.11 215.77 74.53C218.5 76.95 221.95 78.16 226.12 78.16C228.47 78.16 230.62 77.74 232.59 76.9C234.55 76.06 236.26 74.83 237.69 73.2L240.57 76.51C238.89 78.52 236.8 80.06 234.28 81.11C231.76 82.16 229 82.69 225.98 82.69C222.1 82.69 218.66 81.86 215.67 80.21C212.67 78.56 210.34 76.27 208.66 73.35C206.98 70.43 206.14 67.12 206.14 63.43C206.14 59.74 206.94 56.43 208.55 53.51C210.15 50.59 212.36 48.31 215.16 46.68C217.96 45.05 221.11 44.24 224.61 44.24C228.11 44.24 231.25 45.05 234.03 46.68C236.81 48.31 238.99 50.57 240.57 53.47C242.15 56.37 242.94 59.69 242.94 63.42L242.86 65.01ZM215.44 52.11C212.97 54.43 211.57 57.46 211.24 61.2H238.05C237.71 57.46 236.31 54.43 233.85 52.11C231.38 49.79 228.3 48.62 224.61 48.62C220.97 48.63 217.91 49.79 215.44 52.11Z" fill="#9372FF"/>
<path d="M278.87 46.65C281.75 48.26 284 50.52 285.63 53.44C287.26 56.36 288.07 59.69 288.07 63.43C288.07 67.17 287.26 70.5 285.63 73.42C284 76.34 281.75 78.62 278.87 80.25C275.99 81.88 272.79 82.69 269.24 82.69C266.08 82.69 263.24 82.02 260.72 80.68C258.2 79.34 256.18 77.4 254.65 74.86V82.33H249.76V29H254.86V51.71C256.44 49.27 258.47 47.41 260.93 46.14C263.4 44.87 266.16 44.24 269.23 44.24C272.78 44.24 275.99 45.05 278.87 46.65ZM276.07 76.33C278.23 75.11 279.91 73.37 281.14 71.12C282.36 68.87 282.97 66.3 282.97 63.43C282.97 60.55 282.36 57.99 281.14 55.74C279.92 53.49 278.23 51.75 276.07 50.53C273.91 49.31 271.52 48.7 268.88 48.7C266.2 48.7 263.79 49.31 261.66 50.53C259.53 51.75 257.85 53.49 256.63 55.74C255.41 57.99 254.8 60.56 254.8 63.43C254.8 66.3 255.41 68.87 256.63 71.12C257.85 73.37 259.53 75.11 261.66 76.33C263.79 77.55 266.2 78.16 268.88 78.16C271.51 78.17 273.91 77.56 276.07 76.33Z" fill="#9372FF"/>
<path d="M314.8 80.03C313.84 80.89 312.66 81.55 311.24 82.01C309.83 82.46 308.35 82.69 306.82 82.69C303.27 82.69 300.54 81.73 298.63 79.81C296.71 77.89 295.75 75.19 295.75 71.69V48.84H288.99V44.53H295.75V36.26H300.85V44.53H312.35V48.84H300.85V71.41C300.85 73.66 301.41 75.38 302.54 76.55C303.66 77.72 305.28 78.31 307.39 78.31C308.44 78.31 309.46 78.14 310.44 77.81C311.42 77.48 312.27 77 312.99 76.37L314.8 80.03Z" fill="#9372FF"/>
<path d="M321.81 81.36C319.01 80.47 316.82 79.36 315.23 78.02L317.53 74C319.11 75.25 321.1 76.26 323.49 77.05C325.89 77.84 328.38 78.24 330.96 78.24C334.41 78.24 336.96 77.7 338.61 76.62C340.26 75.54 341.09 74.02 341.09 72.06C341.09 70.67 340.63 69.58 339.72 68.79C338.81 68 337.66 67.4 336.27 66.99C334.88 66.58 333.04 66.19 330.74 65.8C327.67 65.22 325.21 64.64 323.34 64.04C321.47 63.44 319.88 62.42 318.56 60.99C317.24 59.55 316.58 57.57 316.58 55.02C316.58 51.86 317.9 49.27 320.53 47.26C323.16 45.25 326.83 44.24 331.53 44.24C333.97 44.24 336.42 44.56 338.86 45.21C341.3 45.86 343.32 46.71 344.9 47.76L342.67 51.86C339.55 49.7 335.84 48.63 331.53 48.63C328.27 48.63 325.82 49.21 324.16 50.36C322.5 51.51 321.68 53.02 321.68 54.89C321.68 56.33 322.15 57.48 323.08 58.34C324.01 59.2 325.18 59.84 326.57 60.24C327.96 60.65 329.88 61.07 332.32 61.5C335.34 62.07 337.76 62.65 339.58 63.22C341.4 63.8 342.96 64.78 344.25 66.17C345.54 67.56 346.19 69.48 346.19 71.92C346.19 75.23 344.81 77.85 342.06 79.79C339.31 81.73 335.48 82.7 330.6 82.7C327.55 82.69 324.61 82.25 321.81 81.36Z" fill="#9372FF"/>
<path d="M383.08 44.53L364.18 86.86C362.65 90.41 360.87 92.92 358.86 94.41C356.85 95.89 354.43 96.64 351.6 96.64C349.78 96.64 348.08 96.35 346.5 95.78C344.92 95.2 343.55 94.34 342.4 93.19L344.77 89.38C346.69 91.3 348.99 92.25 351.67 92.25C353.39 92.25 354.87 91.77 356.09 90.81C357.31 89.85 358.45 88.22 359.5 85.92L361.15 82.25L344.26 44.52H349.58L363.81 76.65L378.04 44.52H383.08V44.53Z" fill="#9372FF"/>
</svg>
