<?xml version="1.0" encoding="UTF-8"?>
<svg width="60px" height="52px" viewBox="0 0 60 52" version="1.1" xmlns="http://www.w3.org/2000/svg" xmlns:xlink="http://www.w3.org/1999/xlink">
    <!-- Generator: Sketch 48.2 (47327) - http://www.bohemiancoding.com/sketch -->
    <title>empty</title>
    <desc>Created with Sketch.</desc>
    <defs></defs>
    <g id="Page-1" stroke="none" stroke-width="1" fill="none" fill-rule="evenodd">
        <g id="noun_1321912_cc" transform="translate(-540.000000, 0.000000)" fill="#3BB75E" fill-rule="nonzero">
            <path d="M540,2.10988885 L540,49.9393931 C540,50.6906873 540.609044,51.2997317 541.360339,51.2997317 L598.639661,51.2997317 C599.390956,51.2997317 600,50.6906873 600,49.9393931 L600,8.84809925 C600,8.09680501 599.390956,7.48776068 598.639661,7.48776068 L561.837969,7.48776068 L558.019952,2.95329877 C556.882473,1.58348045 555.193459,0.792170795 553.412938,0.794894901 L541.360339,0.794894901 C540.626402,0.794487049 540.024464,1.37636008 540,2.10988885 Z M542.720677,3.47022739 L553.458283,3.47022743 C554.429305,3.47008623 555.35,3.90218148 555.970375,4.64918752 L560.196493,9.70057809 C560.454427,10.0102511 560.836397,10.189611 561.23942,10.1903 L597.279323,10.1903 L597.279323,48.5790545 L542.720677,48.5790545 L542.720677,3.47022739 Z M577.255139,23.3855841 L571.922612,28.7453181 L577.255139,34.1322589 C577.619081,34.4713833 577.768892,34.9821178 577.645802,35.4641009 C577.522712,35.946084 577.146352,36.3224437 576.664369,36.4455337 C576.182386,36.5686238 575.671652,36.4188124 575.332527,36.0548707 L570,30.6769989 L564.631197,36.0458018 C564.087062,36.4348467 563.340833,36.3705688 562.871242,35.8942047 C562.40165,35.4178406 562.348064,34.6707671 562.744861,34.1322589 L568.077388,28.7453181 L562.744861,23.3855841 C562.373875,22.8462108 562.439677,22.119092 562.901466,21.6550824 C563.363256,21.1910729 564.090051,21.1217841 564.631197,21.4901791 L570,26.8317752 L575.368803,21.4901791 C575.909949,21.1217841 576.636744,21.1910729 577.098534,21.6550824 C577.560323,22.119092 577.626125,22.8462108 577.255139,23.3855841 Z" id="empty"></path>
        </g>
    </g>
</svg>