<svg id="Layer_1" data-name="Layer 1" xmlns="http://www.w3.org/2000/svg" viewBox="0 0 892.2 557.3"><defs><style>.cls-1,.cls-7{fill:#fff;}.cls-1{opacity:0.65;}.cls-15,.cls-18,.cls-2{fill:none;stroke-miterlimit:10;}.cls-2{stroke:#9ed7fb;stroke-width:1.55px;stroke-dasharray:3.88;}.cls-3{fill:#2691ce;}.cls-4{fill:#38ade1;}.cls-5{fill:#49aff7;}.cls-6{fill:#fdc847;}.cls-8{fill:#f85b3e;}.cls-9{fill:#1f5eb8;}.cls-10{fill:#5180e7;}.cls-11{fill:#06468e;}.cls-12{fill:#d6d9e5;}.cls-13{fill:#bec0cf;}.cls-14{fill:#fafbff;opacity:0.16;}.cls-15,.cls-18{stroke:#fff;}.cls-15{stroke-width:0.85px;}.cls-16{fill:#4e80e8;}.cls-17{fill:#26c2c3;}.cls-18{stroke-width:0.85px;}.cls-19{fill:#f5ab58;}.cls-20{fill:#70a1f5;}.cls-21{fill:#3b73cf;}.cls-22{fill:#47aef7;}.cls-23{fill:#242d38;}.cls-24{fill:#14191e;}.cls-25{fill:#36a6e6;}.cls-26{fill:#161f29;}.cls-27{fill:#dc8a3a;}.cls-28{fill:#4d80e8;}.cls-29{fill:#362b40;}.cls-30{fill:#ed4b33;}.cls-31{fill:#181f26;}.cls-32{fill:#3ba2f5;}.cls-33{fill:#e29080;}.cls-34{fill:#1e2326;}.cls-35{fill:#161c21;}.cls-36{fill:#1aa485;}.cls-37{fill:#20b194;}.cls-38{fill:#d8a99e;}.cls-39{fill:#c3c5d2;}.cls-40{fill:#d3d6e3;}.cls-41{fill:#171e21;}</style></defs><title>banner-03</title><path class="cls-1" d="M237.87,573.94S98.14,445.29,170.69,323.47,387,244.92,529.41,170.92s234.85-64.57,273.56,0c47.14,78.61-68,148-2.17,255s-4,148-4,148Z" transform="translate(-70.86 -16.64)"/><path class="cls-2" d="M573.08,363.14c7.71,21.92,30.6,46.45,56.74,46.45,29.68,0,36.92-24.06,45.57-31.67,21.28-18.71,34.59-23.07,61.68-27.69,17.63-3,36.47-27.74,31.9-52.29-8.33-44.77-89.06-66.11-109.5-98.86-16.65-26.69-15.78-42.63-44.92-61.78" transform="translate(-70.86 -16.64)"/><path class="cls-3" d="M596.66,107.53c-.11-.25,12.92,7.83,12.92,7.83L606.2,137.3l-6.39-16.42L583,117.68,559,95.12Z" transform="translate(-70.86 -16.64)"/><polygon class="cls-4" points="488.13 78.48 535.34 120.67 528.95 104.25 488.13 78.48"/><polygon class="cls-5" points="488.13 78.48 550.59 91.74 538.72 98.72 488.13 78.48 528.95 104.25 508.77 116.71 488.13 78.48"/><rect class="cls-6" x="239.82" y="77.66" width="79.29" height="54.79" rx="4.98" ry="4.98"/><path class="cls-6" d="M340.23,142.57l7.88,15.29a2.73,2.73,0,0,0,4.76.17l9.44-15.47Z" transform="translate(-70.86 -16.64)"/><path class="cls-7" d="M358.88,106c-7.67-.09-8.3,4.6-8.3,4.6s-.52-4.7-8.19-4.78-10.47,8.69-8.54,14c1.49,4.07,10.43,13,14.45,16.93a2.88,2.88,0,0,0,4,0c4.11-3.81,13.25-12.56,14.83-16.6C369.15,114.94,366.55,106.1,358.88,106Z" transform="translate(-70.86 -16.64)"/><rect class="cls-8" x="713.34" y="196.76" width="58.36" height="40.33" rx="3.67" ry="3.67"/><path class="cls-8" d="M805.94,248.93l5.8,11.26a2,2,0,0,0,3.5.13l6.95-11.38Z" transform="translate(-70.86 -16.64)"/><circle class="cls-7" cx="742.22" cy="208.81" r="6.04"/><path class="cls-7" d="M822.51,245.66a1.83,1.83,0,0,0,1.81-2.17c-1.12-5.9-5.72-10.32-11.24-10.32S803,237.6,801.84,243.5a1.83,1.83,0,0,0,1.81,2.17Z" transform="translate(-70.86 -16.64)"/><path class="cls-7" d="M834.11,144.65c-.93,0-1.42-1.32-.81-2.16,3.73-5.21,13.24-8.86,24.13-8.89,16.33-.06,20.44,8.71,35.05-5.72,3.47-3.43,7.66-4.89,18.11.3s10-13.1,18.71-14c14.5-1.57,27.87,17.63,33.31,26.64,1.13,1.88,0,4.52-1.91,4.51Z" transform="translate(-70.86 -16.64)"/><path class="cls-7" d="M164.87,180.39c.68,0,1-1,.61-1.64-2.68-4-9.59-6.81-17.53-6.92-11.91-.16-11.67-8.7-24.42-14-16.22-6.8-23.3,14.11-29.68,13.32-10.56-1.3-18.62-1.41-22.65,5.39-.84,1.42,0,3.42,1.36,3.43Z" transform="translate(-70.86 -16.64)"/><circle class="cls-5" cx="100.52" cy="187.37" r="8.36"/><circle class="cls-5" cx="758.2" cy="293.6" r="3.52"/><circle class="cls-5" cx="695.7" cy="6.46" r="6.46"/><path class="cls-5" d="M479.55,102.12a1.63,1.63,0,0,1-1.63-1.63V89a1.63,1.63,0,0,1,3.26,0v11.51A1.63,1.63,0,0,1,479.55,102.12Z" transform="translate(-70.86 -16.64)"/><path class="cls-5" d="M485.31,96.37H473.8a1.63,1.63,0,1,1,0-3.26h11.51a1.63,1.63,0,1,1,0,3.26Z" transform="translate(-70.86 -16.64)"/><path class="cls-9" d="M730.72,532.8l-464.66.36a31.87,31.87,0,0,1-31.89-31.84h0l528.39-.41h0A31.87,31.87,0,0,1,730.72,532.8Z" transform="translate(-70.86 -16.64)"/><path class="cls-10" d="M730.71,521.83l-464.66.36a31.85,31.85,0,0,1-29.9-20.87h-2a31.87,31.87,0,0,0,31.89,31.84l464.66-.36a31.87,31.87,0,0,0,31.84-31.89h-2A31.85,31.85,0,0,1,730.71,521.83Z" transform="translate(-70.86 -16.64)"/><path class="cls-11" d="M528.39,511.76l-60,0a10.67,10.67,0,0,1-10.68-10.66h0l81.37-.06h0A10.67,10.67,0,0,1,528.39,511.76Z" transform="translate(-70.86 -16.64)"/><path class="cls-10" d="M735.37,500.93l-474,.37-.22-286.1a29.72,29.72,0,0,1,29.7-29.74l414.57-.32a29.72,29.72,0,0,1,29.74,29.7Z" transform="translate(-70.86 -16.64)"/><rect class="cls-12" x="215.07" y="193.37" width="424.64" height="266.39"/><rect class="cls-13" x="215.16" y="434.3" width="424.64" height="25.47"/><rect class="cls-13" x="214.97" y="193.37" width="424.64" height="12.64"/><polygon class="cls-14" points="356.58 193.43 215.07 335.16 215.17 459.93 215.48 459.93 481.66 193.33 356.58 193.43"/><polygon class="cls-14" points="254.75 459.89 332.43 459.83 598.61 193.24 520.93 193.3 254.75 459.89"/><polygon class="cls-14" points="589.86 459.63 639.77 409.65 639.71 331.96 512.18 459.69 589.86 459.63"/><rect class="cls-15" x="427.51" y="294.88" width="174.27" height="100.67" rx="3.37" ry="3.37"/><rect class="cls-16" x="453.34" y="309.11" width="21.92" height="75.15"/><rect class="cls-17" x="486.9" y="342.08" width="21.92" height="42.17"/><rect class="cls-16" x="520.47" y="317.11" width="21.92" height="67.15"/><rect class="cls-17" x="554.03" y="336.14" width="21.92" height="48.12"/><line class="cls-18" x1="427.51" y1="254.39" x2="561.33" y2="254.39"/><line class="cls-18" x1="427.51" y1="272.25" x2="502.93" y2="272.25"/><rect class="cls-15" x="253.37" y="250.24" width="148.63" height="146.72" rx="4.43" ry="4.43"/><polygon class="cls-19" points="351.63 328.31 384.41 337.34 368.96 349.02 351.63 335.98 351.63 328.31"/><path class="cls-19" d="M452.87,349.81,474.29,336l5.54,6.86L449.89,366.4a7.82,7.82,0,0,1-8,1.08,15.56,15.56,0,0,1-8.18-8.83Z" transform="translate(-70.86 -16.64)"/><path class="cls-19" d="M474.29,336,477,323.19A1.52,1.52,0,0,1,478.5,322h0a1.52,1.52,0,0,1,1.54,1.4l.3,4,10.76-7.89a1.64,1.64,0,0,1,2.53.84l1.88,6.08a1.62,1.62,0,0,1-.25,1.46c-2.16,2.89-11,14.25-16.84,15.53Z" transform="translate(-70.86 -16.64)"/><polygon class="cls-10" points="337.9 317.84 366.48 329.7 357.94 348.91 335.91 339.28 337.9 317.84"/><path class="cls-20" d="M436.47,346.93s.63-3.36,3.9-2.35c.56.17,1.06.35,1.52.53a3.55,3.55,0,0,1,2,4.63l-6.79,16.91a5.16,5.16,0,0,1-8.26,1.87l-1.41-1.29Z" transform="translate(-70.86 -16.64)"/><path class="cls-21" d="M415,359.54c.39-1.44,0-12.83,0-12.83l6.84,15.82Z" transform="translate(-70.86 -16.64)"/><path class="cls-10" d="M380.7,330.62l-21.49,13.8,11.84,63h43.47l.76-64a9.87,9.87,0,0,0-6.52-9l-14.51-5.22-4,6.9Z" transform="translate(-70.86 -16.64)"/><polygon class="cls-21" points="310.3 361.2 305.85 340.5 317.95 366.33 312.34 370.32 310.3 361.2"/><path class="cls-10" d="M359.2,344.42s-6.77,4.14-4.75,18.77a127.31,127.31,0,0,0,6.3,25.73l20.89-8.82L376,353.64Z" transform="translate(-70.86 -16.64)"/><path class="cls-20" d="M359.2,386.43s-3.49,8.09,6.59,10.71l-1.26-2.93L383.69,384s1.77-6.37-4.91-6.67Z" transform="translate(-70.86 -16.64)"/><path class="cls-19" d="M384.08,383.35l24-12.49,5.17,7.81-37.39,24.11s-8.33,2.61-11.53-8.31Z" transform="translate(-70.86 -16.64)"/><path class="cls-19" d="M408.1,370.86l4.18-13.26a1.61,1.61,0,0,1,1.67-1.14h0a1.61,1.61,0,0,1,1.49,1.63l-.08,4.23,12.17-7.27a1.74,1.74,0,0,1,2.59,1.14l1.39,6.61a1.72,1.72,0,0,1-.41,1.52c-2.57,2.84-13,14-19.35,14.75Z" transform="translate(-70.86 -16.64)"/><polygon class="cls-22" points="343.66 390.75 345.73 457.16 337.57 536.63 319.74 536.65 325.91 457.18 325.47 390.75 343.66 390.75"/><path class="cls-23" d="M408.43,553.27l7.5,5.83,6.75,1.36a7.13,7.13,0,0,1,5.7,6.38l.13,1.47-37.46-.06,1-15Z" transform="translate(-70.86 -16.64)"/><path class="cls-24" d="M390.9,568.5l37.75.06v-2.39a.85.85,0,0,0-.85-.85l-36.9-.06v3.24" transform="translate(-70.86 -16.64)"/><polygon class="cls-25" points="325.71 429.03 327.19 413.4 334.77 412.43 325.71 429.03"/><polygon class="cls-22" points="300.19 390.75 299.25 457.89 295.33 536.65 313.15 536.64 323 457.5 329.35 390.75 300.19 390.75"/><path class="cls-23" d="M384,553.27l7.52,5.83,6.75,1.36a7.13,7.13,0,0,1,5.7,6.38l.13,1.47-37.46-.06,1-15Z" transform="translate(-70.86 -16.64)"/><path class="cls-24" d="M366.5,568.5l37.75.06v-2.39a.85.85,0,0,0-.85-.85l-36.9-.06v3.24" transform="translate(-70.86 -16.64)"/><path class="cls-26" d="M370.4,298.23s-3.24-12.53,12.63-14.17c13.72-1.41,18.17,6.15,19.62,9.95S388,309.3,388,309.3Z" transform="translate(-70.86 -16.64)"/><path class="cls-19" d="M380.7,330.62l-1.92-18.89,13.54-1.37,1.92,18.89a6.81,6.81,0,0,1-6.09,7.46h0A6.81,6.81,0,0,1,380.7,330.62Z" transform="translate(-70.86 -16.64)"/><path class="cls-27" d="M378.4,312.79s3.13,16,15.61,14.44l-.83-8.1Z" transform="translate(-70.86 -16.64)"/><path class="cls-26" d="M395.36,288.5s12.74.89,5.91,16.05l-3-7.59Z" transform="translate(-70.86 -16.64)"/><path class="cls-19" d="M391.36,324.7h0c7.25-.77,12.72-5.77,12-13l-1.53-14.46a5.79,5.79,0,0,0-6.35-5.13l-14.89,1.57a5.79,5.79,0,0,0-5.13,6.35l1.31,12.42C377.49,319.68,385.24,325.35,391.36,324.7Z" transform="translate(-70.86 -16.64)"/><path class="cls-26" d="M377.33,308.33h0s6.93-5.24,3.22-14.66l-7.41.78s-1.2-1.57-2.58.75,2.67,12.63,2.67,12.63Z" transform="translate(-70.86 -16.64)"/><circle class="cls-19" cx="375.3" cy="309.3" r="4.75" transform="translate(-101.29 24.52) rotate(-6.03)"/><path class="cls-26" d="M380.66,301.8s.08,9.72,2.41,12.4,4.24-.5,11.84-2.14,8.77,2,8.77,2,.21,9.78-9.82,10.84c-7.78.82-15.87-.54-15.08-13.13s-3.68-15.37-3.68-15.37Z" transform="translate(-70.86 -16.64)"/><path class="cls-26" d="M404.48,281.2c-2.46-5-7.76-4.93-12.91-1.71a16.61,16.61,0,0,1-4.58,2.1C365,287.28,375.42,300,375.42,300l5.13-6.35a21.91,21.91,0,0,0,11.05,1.09,33.46,33.46,0,0,0,7.33-1.9h0l.11-.05.54-.2a6,6,0,0,0,2.27-1.56C404.52,289,407.08,286.5,404.48,281.2Z" transform="translate(-70.86 -16.64)"/><rect class="cls-28" x="780.08" y="473.41" width="57.31" height="12.75" rx="1.38" ry="1.38" transform="translate(1546.61 942.93) rotate(180)"/><rect class="cls-23" x="785.16" y="486.16" width="47.16" height="3.51" transform="translate(1546.61 959.19) rotate(180)"/><polygon class="cls-23" points="759.99 473.03 767.36 548.96 759.99 548.96 751.74 473.03 759.99 473.03"/><polygon class="cls-29" points="717.69 473.03 710.32 548.96 717.69 548.96 725.94 473.03 717.69 473.03"/><rect class="cls-23" x="788.99" y="524.82" width="41.42" height="4.01" transform="translate(1548.53 1037.02) rotate(180)"/><polygon class="cls-19" points="697.87 503.25 697.99 542.28 685.18 542.13 683.44 502.55 697.87 503.25"/><path class="cls-30" d="M751.59,539.42l21.23,1.24.41-53.41,13.76,2,14.67-25.94s-33.2-8.21-47.23,3.91c-1.12,1-2,4.37-2.09,6Z" transform="translate(-70.86 -16.64)"/><path class="cls-31" d="M754.1,550.19,746.58,556l-6.75,1.36a7.13,7.13,0,0,0-5.7,6.38l-.13,1.47,37.46-.06-1-15Z" transform="translate(-70.86 -16.64)"/><path class="cls-24" d="M771.62,565.41l-37.75.06v-2.39a.85.85,0,0,1,.85-.85l36.9-.06v3.24" transform="translate(-70.86 -16.64)"/><polygon class="cls-19" points="727.8 505.17 727.93 544.2 715.12 544.05 712.42 504.46 727.8 505.17"/><path class="cls-8" d="M802.74,541.74V489.26s28.79,1.91,28.07-27.22c0,0-43.12-3.13-46.31,0-8.65,8.49-4.54,78.7-4.54,78.7" transform="translate(-70.86 -16.64)"/><path class="cls-23" d="M783.71,550.31l-7.52,5.83-6.75,1.36a7.13,7.13,0,0,0-5.7,6.38l-.13,1.47,37.46-.06-1-15Z" transform="translate(-70.86 -16.64)"/><path class="cls-24" d="M801.22,565.54l-37.75.06v-2.39a.85.85,0,0,1,.85-.85l36.9-.06v3.24" transform="translate(-70.86 -16.64)"/><circle class="cls-19" cx="667.05" cy="384.91" r="7.87"/><path class="cls-19" d="M742.78,399.74c.35.17,13.73,8.87,13.73,8.87l-6,7.13-12.6-9Z" transform="translate(-70.86 -16.64)"/><path class="cls-19" d="M740.91,394.26l-10.23-4.17a1.28,1.28,0,0,0-1.62.59h0a1.28,1.28,0,0,0,.38,1.62l8.62,6.35Z" transform="translate(-70.86 -16.64)"/><path class="cls-32" d="M820,394.21s-7.58,18.52-33.07,40.13a9.28,9.28,0,0,1-12.77-.75h0c-3.17-3.39-5-5.54-2.08-9.15l18.06-26.34Z" transform="translate(-70.86 -16.64)"/><path class="cls-32" d="M776.54,435.8,742.34,414l9.89-10.48,32.94,17.61-3.43,11.66A4.34,4.34,0,0,1,776.54,435.8Z" transform="translate(-70.86 -16.64)"/><path class="cls-7" d="M806.45,387.58a28.34,28.34,0,0,1,20.25,15c6.74,13.31-1.62,57.9-1.62,57.9h-38S783,413.16,790,399.09C793.8,391.54,806.45,387.58,806.45,387.58Z" transform="translate(-70.86 -16.64)"/><path class="cls-5" d="M817.24,391.7s-14.55,10.42-15.1,33.23,3,53.63,28.48,44.33c0,0,3.3-2,0-6.93s-4.58-25.72-.93-35.94l-5.52-28.78S822.24,394.81,817.24,391.7Z" transform="translate(-70.86 -16.64)"/><path class="cls-5" d="M799.24,390.57s-6.89,7.61-7.57,23.57c-.54,12.55,1.71,44.24,1.71,44.24l-4.85,1.87-2,.32-.64-17.29s-1.13-12.07-1.62-15C782.55,418,783.55,398.11,799.24,390.57Z" transform="translate(-70.86 -16.64)"/><polygon class="cls-32" points="757.11 418.27 746.23 402.63 752.64 418.35 733.46 421.53 756.8 421.03 757.11 418.27"/><path class="cls-33" d="M808.94,444.47s-8.17-2.26-14.31-1.3c-4.4.69-8,6.64-7.64,11.09h0l26.23,1.25Z" transform="translate(-70.86 -16.64)"/><path class="cls-5" d="M820.78,394.21S838,405.65,850.6,440.72c1.57,4.36-2.49,3.06-6.64,5.13h0c-3.9,1.95-6.33,3-8.79-.59l-20.76-29.83Z" transform="translate(-70.86 -16.64)"/><path class="cls-5" d="M844.2,452.51l-40.12-.34.24-14,39.77-.85a7.6,7.6,0,0,1,7.77,7.57h0A7.6,7.6,0,0,1,844.2,452.51Z" transform="translate(-70.86 -16.64)"/><path class="cls-26" d="M783.9,356.94s-3.94,7.94,0,31.45a308.71,308.71,0,0,1,41,0s4.9-28.8-9.65-38.82Z" transform="translate(-70.86 -16.64)"/><path class="cls-19" d="M798.2,380.46l1.7,12.62a6.25,6.25,0,0,0,7,5.36h0a6.25,6.25,0,0,0,5.35-7l-1.64-12.16c-.45-3.33-3.16-2.85-6.58-2.39h0C800.65,377.33,797.75,377.12,798.2,380.46Z" transform="translate(-70.86 -16.64)"/><path class="cls-27" d="M812.74,375.42s-1.61,14.43-13.1,15.7l-1.13-8.34Z" transform="translate(-70.86 -16.64)"/><path class="cls-7" d="M812.3,391.41s-.16,6.1-7.45,5.74a5.23,5.23,0,0,1-4.63-3.21,6.74,6.74,0,0,1-.4-1.58l.93,5.52,5.31,2.84,3.57-1.45,2.08-2.4,1.7-2.65V392Z" transform="translate(-70.86 -16.64)"/><circle class="cls-26" cx="734.21" cy="348.03" r="18.18"/><path class="cls-19" d="M795.41,356.32h10.74a7.84,7.84,0,0,1,7.84,7.84v19.51a3.62,3.62,0,0,1-3.62,3.62H789.6a2,2,0,0,1-2-2v-21.1a7.84,7.84,0,0,1,7.84-7.84Z" transform="translate(1527.37 734.08) rotate(-179.49)"/><path class="cls-34" d="M807,362.45s-.19,7.4,4.73,8.22,2.27-8.22,2.27-8.22Z" transform="translate(-70.86 -16.64)"/><circle class="cls-19" cx="814.04" cy="371.22" r="4.37" transform="translate(364.56 1165.21) rotate(-89.48)"/><path class="cls-26" d="M789.64,357.81s8.72,10.46,22,7.24c0,0,5.08-.55,3.11-8.33S791.89,348.24,789.64,357.81Z" transform="translate(-70.86 -16.64)"/><path class="cls-26" d="M791.17,357.28s-4.66,1.07-3.87,10.46c0,0-5.5-9.67-2.52-14.33,4.8-7.51,14-1.72,14-1.72Z" transform="translate(-70.86 -16.64)"/><polygon class="cls-23" points="795.27 441.83 823.79 552.36 814.29 552.36 779.23 441.83 795.27 441.83"/><polygon class="cls-35" points="795.27 441.83 799.72 459.05 787.82 468.92 779.23 441.83 795.27 441.83"/><polygon class="cls-23" points="660.38 441.83 631.86 552.36 641.37 552.36 676.42 441.83 660.38 441.83"/><polygon class="cls-35" points="660.38 441.83 653.82 467.25 670.38 460.89 676.42 441.83 660.38 441.83"/><rect class="cls-23" x="698.09" y="453.02" width="203.43" height="7.18" transform="translate(1528.75 896.59) rotate(180)"/><rect class="cls-28" x="160.12" y="476.76" width="57.31" height="12.75" rx="1.38" ry="1.38" transform="translate(306.68 949.64) rotate(180)"/><rect class="cls-23" x="165.19" y="489.51" width="47.16" height="3.51" transform="translate(306.68 965.9) rotate(180)"/><polygon class="cls-23" points="140.02 476.39 147.39 552.31 140.02 552.31 131.77 476.39 140.02 476.39"/><polygon class="cls-23" points="97.72 476.39 90.35 552.31 97.72 552.31 105.97 476.39 97.72 476.39"/><rect class="cls-23" x="169.02" y="528.17" width="41.42" height="4.01" transform="translate(308.6 1043.72) rotate(180)"/><path class="cls-31" d="M232,545.89l4.76,7.76,5.58,3.5a6.83,6.83,0,0,1,2.94,7.63l-.38,1.36-33.52-12.72,6-13Z" transform="translate(-70.86 -16.64)"/><path class="cls-24" d="M211.21,553.6,245,566.42l.81-2.14a.82.82,0,0,0-.47-1.05l-33-12.53-1.1,2.9" transform="translate(-70.86 -16.64)"/><polygon class="cls-19" points="146.57 523.74 154.76 503.44 170.23 509.29 161.18 529.25 146.57 523.74"/><path class="cls-36" d="M236,449s32.73-1.66,29.92,10.85-24.08,80.56-24.08,80.56l-23.29-7.05,16.63-55.6-40.11-15.07Z" transform="translate(-70.86 -16.64)"/><path class="cls-23" d="M245.16,551.63l7.2,5.58,6.46,1.3a6.83,6.83,0,0,1,5.45,6.1l.12,1.41L228.53,566l1-14.33Z" transform="translate(-70.86 -16.64)"/><path class="cls-24" d="M228.39,566.2l36.14.06V564a.82.82,0,0,0-.82-.82l-35.32-.05v3.1" transform="translate(-70.86 -16.64)"/><polygon class="cls-19" points="158.68 535 159.17 513.12 175.7 513.12 174.3 534.99 158.68 535"/><path class="cls-37" d="M205.07,457.36l42.15,1.92s6.06.33,5.65,14.52-4.23,71.3-4.23,71.3l-20.25.7V486l-42.2-.52a22.7,22.7,0,0,1-20.69-13.38,16.53,16.53,0,0,1-1.16-10.31Z" transform="translate(-70.86 -16.64)"/><path class="cls-38" d="M245.07,448.86c0,4,2.7,4.6,6.7,4.61s7.78-.58,7.78-4.58a7.24,7.24,0,1,0-14.49,0Z" transform="translate(-70.86 -16.64)"/><path class="cls-38" d="M240,452.95l8.37,0a4,4,0,0,0,4-4h0a4,4,0,0,0-4-4L240,445a4,4,0,0,0-4,4h0A4,4,0,0,0,240,452.95Z" transform="translate(-70.86 -16.64)"/><path class="cls-39" d="M240.31,453.8l2.79-13.7-34.42-3.75-6.81-41.17c-.69-3.65-5-7.53-8.66-6.83h0c-3.66.69-7,4.94-6.32,8.59l6.7,48.1a6.74,6.74,0,0,0,5,5.29Z" transform="translate(-70.86 -16.64)"/><path class="cls-40" d="M171.55,389.53a7.3,7.3,0,0,0-2.07.48l-.35.13c-5.91,2.31-9.91,8.65-10.18,14.59l5.38,57.05c35.66-.31,40.73-4.42,40.73-4.42L202.23,399c-.43-5.5-3-10.68-9.23-11.2h0Z" transform="translate(-70.86 -16.64)"/><polygon class="cls-39" points="104.51 394.97 103.58 421.19 138.58 427.83 107.74 418.2 104.51 394.97"/><path class="cls-19" d="M210.82,453.34c-.27,4,2.39,4.77,6.38,5s7.8-.07,8.07-4.06a7.24,7.24,0,0,0-14.45-1Z" transform="translate(-70.86 -16.64)"/><path class="cls-19" d="M205.47,457.09l8.35.57a4,4,0,0,0,4.24-3.69h0a4,4,0,0,0-3.69-4.24l-8.35-.57a4,4,0,0,0-4.24,3.69h0A4,4,0,0,0,205.47,457.09Z" transform="translate(-70.86 -16.64)"/><path class="cls-40" d="M205.74,458l3.7-13.49-37.51-6,2.13-34.88c-.45-3.69-4.5-7.84-8.19-7.4h0c-3.69.45-7.33,4.46-6.88,8.16l-2.7,41.79a6.74,6.74,0,0,0,4.66,5.61Z" transform="translate(-70.86 -16.64)"/><path class="cls-24" d="M270.63,411.62l-40.92,3.86a2.86,2.86,0,0,0-2.58,2.52l-4.29,36.88a2.86,2.86,0,0,0,3.11,3.18l41.6-3.92a2.86,2.86,0,0,0,2.58-2.57l3.61-36.81A2.86,2.86,0,0,0,270.63,411.62Z" transform="translate(-70.86 -16.64)"/><path class="cls-23" d="M273,411.4l-40.92,3.86a2.86,2.86,0,0,0-2.58,2.52l-4.29,36.88a2.86,2.86,0,0,0,3.11,3.18l41.6-3.92a2.86,2.86,0,0,0,2.58-2.57l3.61-36.81A2.86,2.86,0,0,0,273,411.4Z" transform="translate(-70.86 -16.64)"/><path class="cls-24" d="M224,455.13l-28,2.64a1.55,1.55,0,0,0-1.4,1.69h0a1.55,1.55,0,0,0,1.69,1.4L226,458.16Z" transform="translate(-70.86 -16.64)"/><circle class="cls-7" cx="254" cy="433.35" r="4.48" transform="translate(-110.41 9.12) rotate(-5.39)"/><path class="cls-19" d="M176.35,389.4l-.52-19.06,13.67-.37L190,389c.1,3.77-2.25,4.68-6,4.78l-1.07-.11C179.15,393.8,176.45,393.18,176.35,389.4Z" transform="translate(-70.86 -16.64)"/><path class="cls-27" d="M175.37,371.37s2,16.28,14.57,15.63l-.23-8.18Z" transform="translate(-70.86 -16.64)"/><path class="cls-41" d="M195.87,351.64s6.7,5.39,0,16.87L189,354Z" transform="translate(-70.86 -16.64)"/><path class="cls-19" d="M187.46,383.25l-.45.05a12.27,12.27,0,0,1-13.61-10.77l-1.61-13.76a3.18,3.18,0,0,1,2.79-3.52l16-1.87a5.67,5.67,0,0,1,6.29,5l1.32,11.28A12.27,12.27,0,0,1,187.46,383.25Z" transform="translate(-70.86 -16.64)"/><path class="cls-26" d="M173.38,370.57h0a5,5,0,0,0,4.45-4.65c.74-5.16-1.34-8.59-1.06-8.59,9,.12,21.27-1.94,22.77-8.29s-7.08-15.62-15.08-10.12c-7,4.81-16.8,10.32-16.8,10.32-5.39,2.39-11.48,20.72,6.73,26.89C174.39,376.14,172.91,372.13,173.38,370.57Z" transform="translate(-70.86 -16.64)"/><circle class="cls-19" cx="171.76" cy="368.51" r="4.42" transform="translate(-112.46 5.78) rotate(-6.66)"/></svg>