<svg xmlns="http://www.w3.org/2000/svg" viewBox="0 0 331.82 263.52"><defs><style>.cls-1{isolation:isolate;}.cls-2,.cls-4{fill:#d1e3f1;}.cls-2{opacity:0.6;}.cls-16,.cls-3{fill:#fff;}.cls-3{opacity:0.5;mix-blend-mode:screen;}.cls-5{fill:#1c47c1;}.cls-6{fill:#0036ac;}.cls-7{fill:#0172d0;}.cls-8{fill:#ffac00;}.cls-9{fill:#fa8a00;}.cls-10{fill:#fda893;}.cls-11{fill:#001f37;}.cls-12{fill:#043c62;}.cls-13{fill:#005982;}.cls-14{fill:#fd896b;}.cls-15{fill:#0056c5;}.cls-17{fill:#ededed;}.cls-18{fill:#20363c;}</style></defs><title>about-1</title><g class="cls-1"><g id="OBJECTS"><path class="cls-2" d="M628.2,281.22v0a95.12,95.12,0,0,1-13,33,96.36,96.36,0,0,1-81.49,44.85h-65a96.27,96.27,0,0,1-69.68-29.85q-1.17-1.23-2.31-2.51a97.32,97.32,0,0,1-21.28-39.47,95.58,95.58,0,0,1-2.74-14.86l0-.36a168.07,168.07,0,0,1-.72-26.29c1-18.52,5.72-34.61,14.75-46.61,10.51-14,26.93-22.37,50.43-22.63,1,0,2,0,3,0,64.75,1,62.59,30.5,115.62,43.46,12.12,3,27.12,5.06,46.47,5.75l1.29.07C630.65,227.56,633.57,253,628.2,281.22Z" transform="translate(-312.35 -117.46)"/><path class="cls-3" d="M603.49,225.82c-18.35,9.58-47,19.84-81.54,16.1-52.4-5.67-118.36-16.65-150,3.87,1-18.52,5.72-34.61,14.75-46.61,11.07-2.57,25.14-2.67,42.92,1.92C468.16,211,518.17,221.9,555.73,220c12.12,3,27.12,5.06,46.47,5.75Z" transform="translate(-312.35 -117.46)"/><path class="cls-3" d="M628.2,281.23a95.12,95.12,0,0,1-13,33c-13.26,4-30.91,5.46-53.77.47-55.85-12.2-117.1-12-162.36,14.54q-1.17-1.23-2.31-2.51a97.32,97.32,0,0,1-21.28-39.47c15.82-7.49,55.43-22,106.49-10.39C535.8,289.19,597.52,299,628.2,281.23Z" transform="translate(-312.35 -117.46)"/><path class="cls-2" d="M312.35,143.33a4.61,4.61,0,0,0,4.58,4.59h98.12a4.58,4.58,0,0,0,3.23-7.83,4.54,4.54,0,0,0-3.23-1.35h-4.64A12,12,0,0,0,391,135a16.61,16.61,0,0,0-19.14-7.48,19,19,0,0,0-35.08,3.83,12,12,0,0,0-16.84,7.35h-3A4.6,4.6,0,0,0,312.35,143.33Z" transform="translate(-312.35 -117.46)"/><path class="cls-2" d="M520.93,164.69a3,3,0,0,1-3,3H454.34a3,3,0,0,1-2.1-5.08,2.94,2.94,0,0,1,2.1-.88h3a7.76,7.76,0,0,1,12.62-2.4,10.77,10.77,0,0,1,12.41-4.85,12.31,12.31,0,0,1,22.75,2.49A7.76,7.76,0,0,1,516,161.71H518A3,3,0,0,1,520.93,164.69Z" transform="translate(-312.35 -117.46)"/><path class="cls-4" d="M593.5,198.38l.81-4.13-3.87-.76a9.44,9.44,0,0,0-.51-3l3.19-2.14-2.35-3.49-3,2a9.42,9.42,0,0,0-3.13-2.11l.76-3.87-4.13-.81-.78,4a9.37,9.37,0,0,0-2.51.49l-2.14-3.19-3.49,2.35,2,3a9.42,9.42,0,0,0-2.11,3.13l-3.38-.66-.81,4.13,3.5.69a9.38,9.38,0,0,0,.74,3.18l-3.05,2,2.35,3.49,3.19-2.14a9.41,9.41,0,0,0,3.07,1.79l-.76,3.89,4.13.81.83-4.22a9.35,9.35,0,0,0,2.67-.7l2,3.05,3.49-2.35-2.14-3.19a9.4,9.4,0,0,0,1.4-2.14Zm-10.37-1.65a3.86,3.86,0,1,1,1.05-5.35A3.86,3.86,0,0,1,583.14,196.73Z" transform="translate(-312.35 -117.46)"/><path class="cls-4" d="M374.66,203.36l.81-4.13-3.87-.76a9.44,9.44,0,0,0-.51-3l3.19-2.14-2.35-3.49-3,2a9.42,9.42,0,0,0-3.13-2.11l.76-3.87-4.13-.81-.78,4a9.37,9.37,0,0,0-2.51.49l-2.14-3.19-3.49,2.35,2,3a9.42,9.42,0,0,0-2.11,3.13l-3.38-.66-.81,4.13,3.5.69a9.38,9.38,0,0,0,.74,3.18l-3.05,2,2.35,3.49,3.19-2.14a9.42,9.42,0,0,0,3.07,1.79l-.76,3.89,4.13.81.83-4.22a9.35,9.35,0,0,0,2.67-.7l2,3.05,3.49-2.35-2.14-3.19a9.4,9.4,0,0,0,1.4-2.14Zm-10.37-1.65a3.86,3.86,0,1,1,1.05-5.35A3.86,3.86,0,0,1,364.29,201.7Z" transform="translate(-312.35 -117.46)"/><path class="cls-4" d="M615.69,203.29l.44-2.26-2.11-.41a5.16,5.16,0,0,0-.28-1.65l1.74-1.17-1.28-1.91L612.53,197a5.15,5.15,0,0,0-1.71-1.15l.42-2.11L609,193.3l-.43,2.18a5.13,5.13,0,0,0-1.37.27L606,194l-1.91,1.28,1.12,1.67a5.15,5.15,0,0,0-1.15,1.71l-1.85-.36-.44,2.26,1.91.38a5.13,5.13,0,0,0,.41,1.74l-1.67,1.12,1.28,1.91,1.74-1.17a5.14,5.14,0,0,0,1.68,1l-.42,2.13,2.26.44.45-2.31a5.11,5.11,0,0,0,1.46-.39l1.12,1.67,1.91-1.28L612.74,204a5.13,5.13,0,0,0,.77-1.17Zm-5.67-.9a2.11,2.11,0,1,1,.57-2.92A2.11,2.11,0,0,1,610,202.38Z" transform="translate(-312.35 -117.46)"/><path class="cls-2" d="M541.68,150.9a4.4,4.4,0,0,0,4.38,4.38h93.69a4.38,4.38,0,0,0,3.09-7.48,4.33,4.33,0,0,0-3.09-1.29h-4.43A11.42,11.42,0,0,0,616.73,143a15.86,15.86,0,0,0-18.28-7.14A18.13,18.13,0,0,0,565,139.5a11.42,11.42,0,0,0-16.08,7h-2.82A4.39,4.39,0,0,0,541.68,150.9Z" transform="translate(-312.35 -117.46)"/><ellipse class="cls-2" cx="177.65" cy="254.74" rx="154.17" ry="8.78"/><path class="cls-5" d="M387.82,372.07h2.68l-9.9-25.71a32.34,32.34,0,0,1,3.72-9.43c4.09-7.14,7.17-15.48,1.94-14.9-4.54.5-7.75,10.12-7.53,19.49l-3.56-9.24A47,47,0,0,1,374,320c.66-11.35-.81-22.22-6.3-19.26s-2.62,21.63,5.63,33.63l1.83,4.75c-5.86-8.85-17-16-21.34-12.95s3.61,7.2,11.43,9.75a29.39,29.39,0,0,1,11,6.1l8.64,22.45c-9.32-14-27-25.33-33.78-20.42s5.73,11.42,18.14,15.48c9.38,3.07,14.85,7.22,17.44,9.63Z" transform="translate(-312.35 -117.46)"/><path class="cls-5" d="M590.36,372.07a11.84,11.84,0,0,0-.77-7.38c-2.86-6.29.8-8.37,5.52-11.56s4-9.51-.76-13.87.93-9.9-3.16-17.12-11.39-.27-11.7,7.26c-.22,5.41-7.18,5.75-8.25,12.93-.92,6.24,7.47,10-.33,14.46a7.75,7.75,0,0,0-3.79,6.36,12.28,12.28,0,0,0,2.65,8.92Z" transform="translate(-312.35 -117.46)"/><path class="cls-6" d="M579.5,372.07l7-40.15a.64.64,0,0,0-1.27-.22l-7.08,40.37Z" transform="translate(-312.35 -117.46)"/><path class="cls-7" d="M610,372.07a14.52,14.52,0,0,0,.07-1.69c-.15-8.79,5.18-9.38,12.31-10.71s9.5-9.08,6.15-16.58,6.1-11.1,5-21.6-13.17-6.09-17.35,2.55c-3,6.21-11.3,3.07-16.19,10.93-4.24,6.82,3.64,15.49-7.73,16.72-3.63.39-6,2.63-7.65,5.5a15.75,15.75,0,0,0-.21,14.88Z" transform="translate(-312.35 -117.46)"/><path class="cls-5" d="M595.78,372.07l27.39-41.52a.82.82,0,0,0-1.37-.9l-28,42.42Z" transform="translate(-312.35 -117.46)"/><path class="cls-5" d="M412.4,359.36c-2.47-19.54-6.2-39.8-10.26-52.93-5.29-17.15-11.92-28.52-19.68-33.78a1.13,1.13,0,0,0-1.26,1.86c13.58,9.2,23.64,39.07,29.14,86.42Z" transform="translate(-312.35 -117.46)"/><path class="cls-7" d="M396.15,291.53s9.24-1.82,5.41-17.93C401.56,273.59,388.21,280.39,396.15,291.53Z" transform="translate(-312.35 -117.46)"/><path class="cls-7" d="M398.56,299.73s-1.3-9.32-17.6-6.4C381,293.34,387,307,398.56,299.73Z" transform="translate(-312.35 -117.46)"/><path class="cls-7" d="M387,278.33s1.88-9.22-14.46-11.9C372.58,266.43,373.71,281.36,387,278.33Z" transform="translate(-312.35 -117.46)"/><path class="cls-7" d="M403.91,316.09s9.31,1.41,11.15-15C415.06,301,400.2,302.92,403.91,316.09Z" transform="translate(-312.35 -117.46)"/><path class="cls-7" d="M405.09,324.82s.33-9.41-16.23-9.34C388.86,315.48,392.43,330,405.09,324.82Z" transform="translate(-312.35 -117.46)"/><path class="cls-7" d="M407.9,336.62s9.28,1.59,11.44-14.83C419.34,321.78,404.44,323.38,407.9,336.62Z" transform="translate(-312.35 -117.46)"/><polygon class="cls-8" points="315.86 160.16 315.83 160.22 295.75 198.31 288.12 184.4 193.45 236.39 178.18 208.57 93.02 255.33 60.17 255.33 184.42 187.1 199.7 214.92 280.51 170.54 272.88 156.64 315.86 160.16"/><polygon class="cls-9" points="315.83 160.22 295.75 198.31 288.12 184.4 193.45 236.39 178.18 208.57 93.02 255.33 74.22 255.33 180.47 196.99 195.74 224.81 315.83 160.22"/><path class="cls-10" d="M452,306.9l-5.5,3.78a8.54,8.54,0,0,0,2.14,5.19l6.5-4.3Z" transform="translate(-312.35 -117.46)"/><path class="cls-7" d="M449.42,313.87c.82,1,1.18,1.7.35,3-.54.84-2,9.61-1.51,12.26s-1.56,2.84-2.66,2.73S438.66,312,438.66,312s5.54-2.65,7.53-2.67S448.29,312.09,449.42,313.87Z" transform="translate(-312.35 -117.46)"/><path class="cls-11" d="M494.23,252.63s-.6,32.27-4,38.64S453.92,313,453.92,313a14.7,14.7,0,0,1-3-6.29s9.26-8.14,12.92-11.82a79.42,79.42,0,0,1,13.62-10.31l-.83-36.66Z" transform="translate(-312.35 -117.46)"/><path class="cls-12" d="M452.08,304.93a19.8,19.8,0,0,0-3.07,2.24s1.86,6.18,5,6.92l2.38-1.51S453,308.39,452.08,304.93Z" transform="translate(-312.35 -117.46)"/><path class="cls-10" d="M547.63,295.31l3.44,5.72a8.54,8.54,0,0,0,5.31-1.82l-3.89-6.75Z" transform="translate(-312.35 -117.46)"/><path class="cls-7" d="M554.62,298.06c.82-1,1.51-1.42,2.9-.8.91.4,9.8.49,12.35-.34s4.07,1.68,3.1,2.22C567.77,302,554.38,309,554.38,309s-3.45-5.08-3.77-7S553,299.45,554.62,298.06Z" transform="translate(-312.35 -117.46)"/><path class="cls-12" d="M492.56,234.3s36.17,14,40.89,19.48S554,293.53,554,293.53s-2.65,4.83-6.4,3.87c0,0-8.06-11.88-10.92-16.45-3-4.78-10-10.5-13.37-20.79,0,0-19.32-.69-34.06-3.09-9.91-1.61-16.79-8.73-14.38-18.48l0-.08a1.71,1.71,0,0,1,1.32-1.15Z" transform="translate(-312.35 -117.46)"/><path class="cls-13" d="M545.72,295.74a16.48,16.48,0,0,0,2,2.8s4.72-1.27,7-4.86l-1.22-2.41A41.61,41.61,0,0,1,545.72,295.74Z" transform="translate(-312.35 -117.46)"/><path class="cls-10" d="M566.65,168.45c-1.15-.26-5.87,2.61-6.08,2.65s-1.17-.21-2.13-.27-1.52.28-2.23,1.62a19.62,19.62,0,0,0-1.25,3.64l-1.49.69q1.21,2.16,2.57,4.24l2.16-1.43a2.38,2.38,0,0,0,1.4.07c1.16-.34,2.15-.72,2.73-1l.54-.23h0a2.52,2.52,0,0,0,1.73-.11c1.2-.4,2-1.34,1.95-1.93s-.74-.9-.74-.9a1.47,1.47,0,0,0,.42-1.1c-.07-.63-1.2-1.18-1.2-1.18a1.11,1.11,0,0,0,0-1.29c-.47-.59-1.92.06-2,.11C563.18,171.92,567.76,168.7,566.65,168.45Z" transform="translate(-312.35 -117.46)"/><path class="cls-14" d="M557.82,174.66a.27.27,0,0,1-.26-.38l.52-1.14a.27.27,0,0,1,.38-.12,3.46,3.46,0,0,0,2.37.36,1,1,0,0,0,.64-.45.57.57,0,0,0,0-.43.27.27,0,0,1,.12-.36.27.27,0,0,1,.36.12,1.09,1.09,0,0,1,0,.87,1.44,1.44,0,0,1-1,.76,3.72,3.72,0,0,1-2.54-.28l-.41.89A.27.27,0,0,1,557.82,174.66Z" transform="translate(-312.35 -117.46)"/><path class="cls-14" d="M562.88,178.47h0l-.54.23a2.78,2.78,0,0,1-.65-1.73,2,2,0,0,0-.38-1.19,1.66,1.66,0,0,1-.45-1,2.37,2.37,0,0,1,.06-.88c0-.09,0-.18.07-.26a2.69,2.69,0,0,1,.14-.34.27.27,0,0,1,.48.24l0,.06a2.31,2.31,0,0,0-.2,1,1.19,1.19,0,0,0,.32.76,2.43,2.43,0,0,1,.53,1.49A2,2,0,0,0,562.88,178.47Z" transform="translate(-312.35 -117.46)"/><path class="cls-14" d="M559,176.73a.27.27,0,0,1-.15-.5h0a3.26,3.26,0,0,0,1.61-2.4.27.27,0,1,1,.53,0,3.74,3.74,0,0,1-1.89,2.84Z" transform="translate(-312.35 -117.46)"/><path class="cls-7" d="M556.72,180.9s-14.88,9.53-19.16,10.27S520.11,190,520.11,190a37.57,37.57,0,0,1-4-.49c-4-.73-6.32-2.05-7.69-3.78-2.29-2.88-.91-7,.38-10.35,0,0,2.07,1.64,12.49,3.83l15.61,3s11.16-3.62,17.33-6.36C554.25,175.89,555.59,180.13,556.72,180.9Z" transform="translate(-312.35 -117.46)"/><polygon class="cls-15" points="242 57.93 240.01 58.81 242.99 64.84 244.86 63.8 242 57.93"/><path class="cls-5" d="M516.12,189.52c-4-.73-6.32-2.05-7.69-3.78-.88-3.67-1.43-7.71,0-8.72A127.11,127.11,0,0,0,516.12,189.52Z" transform="translate(-312.35 -117.46)"/><rect class="cls-11" x="414.07" y="215.67" width="39.09" height="60.57" rx="2.44" ry="2.44" transform="translate(-283.16 419.96) rotate(-65.34)"/><path class="cls-12" d="M460.53,259.9,468.27,243a2.44,2.44,0,0,0-1.2-3.24l-50.61-23.23a2.44,2.44,0,0,0-3.24,1.2l-7.74,16.86Z" transform="translate(-312.35 -117.46)"/><path class="cls-8" d="M451.84,226.84l-2.26,4.93-2.5-1.15,2.2-4.79-2.43-1.11-.12-.06-1.48-.68-.18-.08-6.4-2.94-2.2,4.79L434,224.6l2.26-4.93a2.6,2.6,0,0,1,3.45-1.28l6,2.76.45.21.84.39.18.08,3.42,1.57A2.6,2.6,0,0,1,451.84,226.84Z" transform="translate(-312.35 -117.46)"/><path class="cls-9" d="M446.73,224.66l-1.48-.68-.18-.08a21.73,21.73,0,0,1,.61-2.75l.45.21.84.39A13.1,13.1,0,0,0,446.73,224.66Z" transform="translate(-312.35 -117.46)"/><rect class="cls-9" x="434.64" y="222.91" width="1.95" height="2.75" transform="translate(-262.3 409.16) rotate(-65.34)"/><rect class="cls-9" x="447.76" y="228.93" width="1.95" height="2.75" transform="translate(-260.13 424.59) rotate(-65.34)"/><rect class="cls-9" x="414.34" y="238.26" width="6.48" height="3.84" rx="0.53" ry="0.53" transform="translate(-287.26 402.02) rotate(-65.34)"/><path class="cls-8" d="M420.46,238.52,419.33,241l-3.49-1.6,1.13-2.46a.53.53,0,0,1,.7-.26l2.53,1.16A.53.53,0,0,1,420.46,238.52Z" transform="translate(-312.35 -117.46)"/><rect class="cls-9" x="445.2" y="252.43" width="6.48" height="3.84" rx="0.53" ry="0.53" transform="translate(-282.15 438.33) rotate(-65.34)"/><path class="cls-8" d="M451.32,252.69l-1.13,2.46-3.49-1.6,1.13-2.46a.53.53,0,0,1,.7-.26l2.53,1.16A.53.53,0,0,1,451.32,252.69Z" transform="translate(-312.35 -117.46)"/><path class="cls-10" d="M449.29,222.81a16.42,16.42,0,0,1-1.61-.74.67.67,0,0,0-.1-.56.69.69,0,0,0-1.12,0,5.61,5.61,0,0,0-.86,2.6l.73.37s-.66.82-1.24.68a1,1,0,0,1-.69-1s-.4.71-1,.47a1.11,1.11,0,0,1-.61-1,.92.92,0,0,1-1.39-.52s-1,.39-1.19-.47,1.08-3.48,1.08-3.48a28.08,28.08,0,0,1,3.94-6.84c.34-.75.75-1.65,1.21-2.65,1,.71,2.07,1.37,3.08,2.07l1.84,1.27c-.92,1.22-1.69,2.22-2.19,2.86a12.12,12.12,0,0,1,0,2.07C449,219.15,449.82,221.48,449.29,222.81Z" transform="translate(-312.35 -117.46)"/><path class="cls-7" d="M475.21,194.34l13.24-5.42s5.51-9.49,2.17-15.76c0,0-13.63,6.27-20.6,10.17,0,0-10.41,5.64-13.9,9.5L445.29,211.2s3.25,3.73,5.48,3.49c4-5.46,9.63-13.29,10.71-15.89Z" transform="translate(-312.35 -117.46)"/><path class="cls-15" d="M445.78,209.92a3.41,3.41,0,0,0-1.46,2.28l6,3.92a7.3,7.3,0,0,0,1.61-2.19Z" transform="translate(-312.35 -117.46)"/><path class="cls-7" d="M508.18,231.72a34,34,0,0,0,0,9.23c-5.4-2.14-13.46-6.18-21.15-2.8a20.78,20.78,0,0,1-12.33,1.18,48.36,48.36,0,0,1,1.19-14.21c1.8-7.13,3.58-16.05,4.21-19.57.53-3,1-5.78,1.55-8.39q.47-2.46.93-4.68h0c1.74-8.47,2.51-15.74,3.85-16.85,3.79-3.13,12.54-6.22,12.54-6.22l5.87,1.64s6.28,4.85,6.21,8.38c-.55,31.16-1.38,31.38-2,40.85A87.68,87.68,0,0,1,508.18,231.72Z" transform="translate(-312.35 -117.46)"/><path class="cls-5" d="M481.15,226.14H481a.4.4,0,0,1,.06-.8h.1c.93.06,8.3.5,13.54-1.45a26.27,26.27,0,0,0,10.74-7.79.4.4,0,1,1,.64.48,26.58,26.58,0,0,1-11.1,8.06C489.62,226.61,482.42,226.23,481.15,226.14Z" transform="translate(-312.35 -117.46)"/><path class="cls-5" d="M499.61,226.55a.4.4,0,0,0-.59-.35c-3.22,1.76-9.13,4.26-15.5,3.31a.4.4,0,0,0-.12.79,20,20,0,0,0,2.4.21,27.79,27.79,0,0,0,13.6-3.61.39.39,0,0,0,.2-.35Z" transform="translate(-312.35 -117.46)"/><path class="cls-5" d="M493.15,187.72a42.75,42.75,0,0,1-11.3,8.32c.31-1.64.66-3.33,1-4.81h0l.65-.23Z" transform="translate(-312.35 -117.46)"/><polygon class="cls-16" points="195.27 98.58 191.68 109.15 187.26 99.06 190.46 64.53 190.54 63.18 192.16 63.01 192.32 64.84 195.27 98.58"/><polygon class="cls-17" points="192.32 64.84 191.51 65.77 190.46 64.53 190.54 63.18 192.16 63.01 192.32 64.84"/><polygon class="cls-16" points="193.44 60.58 191.51 64.76 188.49 60.28 191.51 56.61 193.44 60.58"/><path class="cls-5" d="M496.59,174.51a7.61,7.61,0,0,1-.08-3.71,3,3,0,0,1,.3-.84c.74-1.2,2.44-.65,2.44-.65.82,3.52,4.61,4.76,4.61,4.76l-3.62,5.82S497.83,179.1,496.59,174.51Z" transform="translate(-312.35 -117.46)"/><path class="cls-5" d="M506.13,170.89s2.25,2.13,1.59,4.68l-1,4.32-2.84-5.82A12.45,12.45,0,0,0,506.13,170.89Z" transform="translate(-312.35 -117.46)"/><path class="cls-10" d="M507.81,166.6l-1.2,3.74-.77,2.39c-.14.42-.77,1.44-1.22,1.43A7.43,7.43,0,0,1,499,171l.83-5.81a22.38,22.38,0,0,1,3.29-.33h0Z" transform="translate(-312.35 -117.46)"/><path class="cls-14" d="M507.81,166.6l-1.2,3.74a9,9,0,0,1-4-5.44l.49,0Z" transform="translate(-312.35 -117.46)"/><path class="cls-10" d="M513.71,153a48.45,48.45,0,0,1,.54,6.34.1.1,0,0,0,0,0h0c0,.48,0,.94-.05,1.36,0,.24,0,.5-.08.76-.06.48-.09,1-.14,1.58v.09a22.42,22.42,0,0,1-.3,2.5h0a10,10,0,0,1-.26,1.07c-.06.2-.13.39-.21.57-1,2.46-1.75,4.42-8,.27-2.86-1.91-6.08-1.3-7.44-4.78l0-.06h0a35.81,35.81,0,0,1-1.76-6.64,5.23,5.23,0,0,1,1.78-4.87c3.82-3.24,8.51-3.19,11.7-2.62A5.21,5.21,0,0,1,513.71,153Z" transform="translate(-312.35 -117.46)"/><path class="cls-14" d="M513.41,166.7c-.06.2-.13.39-.21.57h-.28a2.86,2.86,0,0,1-1.29-.48.27.27,0,0,1,.32-.44,2.34,2.34,0,0,0,1,.38A1.72,1.72,0,0,0,513.41,166.7Z" transform="translate(-312.35 -117.46)"/><path class="cls-14" d="M502.44,161.51a3.15,3.15,0,0,0,1.79-1.32S504,163,501.75,163Z" transform="translate(-312.35 -117.46)"/><path class="cls-18" d="M514.85,149c1.83-2,1.84-5.24-1-5.68-4.75-.75-7.47-1.69-10.35-1.79s-4.32,3.16-7.28,4-4.84,6-3.89,8.94c.14.44.28.85.41,1.23a37,37,0,0,0,5.72,10.52l.27.35c.18.24,1.65.6,3.07-1.76a6.72,6.72,0,0,0,1.14-3.49c-2.83-.38-5-3.88-3.7-5.73a2.24,2.24,0,0,1,1.3-.72,3.22,3.22,0,0,1,3.37,1.88c.35,1.05.59,1.81.59,1.81l1.64.13a25.2,25.2,0,0,1-.84-3.67c0-1,1.44-.62,1.19-2.48s-1.86-2.09-1.17-2.8,5.39-.15,6.75.62S514.85,149,514.85,149Z" transform="translate(-312.35 -117.46)"/><path class="cls-14" d="M503,158.87a.24.24,0,0,1-.26-.13A3.68,3.68,0,0,0,500.3,157a.24.24,0,0,1,.08-.47,4.1,4.1,0,0,1,2.78,2,.24.24,0,0,1-.11.32Z" transform="translate(-312.35 -117.46)"/><path class="cls-14" d="M501.25,158.41a.24.24,0,0,1-.26-.32,2.17,2.17,0,0,1,.74-.87.24.24,0,1,1,.27.39,1.72,1.72,0,0,0-.57.66A.24.24,0,0,1,501.25,158.41Z" transform="translate(-312.35 -117.46)"/><ellipse class="cls-18" cx="511.92" cy="156.38" rx="0.62" ry="0.97" transform="translate(-332.55 -19.06) rotate(-10.77)"/><path class="cls-18" d="M508.6,154a6.89,6.89,0,0,1,4.42-1v1.11a12.63,12.63,0,0,0-4.21,1.15A1.9,1.9,0,0,1,508.6,154Z" transform="translate(-312.35 -117.46)"/><path class="cls-10" d="M514,156s1.71,3.06,1.84,4.5c.07.81-2.11,1.35-2.11,1.35Z" transform="translate(-312.35 -117.46)"/><path class="cls-16" d="M514,163v.09a22.42,22.42,0,0,1-.3,2.5h-.19a2.85,2.85,0,0,1-2.9-2.47Z" transform="translate(-312.35 -117.46)"/><path class="cls-7" d="M558,214.63a3.89,3.89,0,1,1,3.89-3.89A3.89,3.89,0,0,1,558,214.63Zm0-6.55a2.67,2.67,0,1,0,2.67,2.67A2.67,2.67,0,0,0,558,208.08Z" transform="translate(-312.35 -117.46)"/><path class="cls-8" d="M572,228.26a3.89,3.89,0,1,1,3.89-3.89A3.89,3.89,0,0,1,572,228.26Zm0-6.55a2.67,2.67,0,1,0,2.67,2.67A2.67,2.67,0,0,0,572,221.71Z" transform="translate(-312.35 -117.46)"/><path class="cls-7" d="M576.8,240.89a.61.61,0,0,1-.61-.61v-2.69a.61.61,0,0,1,1.22,0v2.69A.61.61,0,0,1,576.8,240.89Z" transform="translate(-312.35 -117.46)"/><path class="cls-7" d="M576.8,245.6a.61.61,0,0,1-.61-.61V242.3a.61.61,0,0,1,1.22,0V245A.61.61,0,0,1,576.8,245.6Z" transform="translate(-312.35 -117.46)"/><path class="cls-7" d="M580.57,241.9h-2.42a.61.61,0,0,1,0-1.22h2.42a.61.61,0,0,1,0,1.22Z" transform="translate(-312.35 -117.46)"/><path class="cls-7" d="M575.44,241.9H573a.61.61,0,1,1,0-1.22h2.41a.61.61,0,0,1,0,1.22Z" transform="translate(-312.35 -117.46)"/><path class="cls-8" d="M555.34,225.83a.61.61,0,0,1-.61-.61v-2.69a.61.61,0,0,1,1.22,0v2.69A.61.61,0,0,1,555.34,225.83Z" transform="translate(-312.35 -117.46)"/><path class="cls-8" d="M555.34,230.53a.61.61,0,0,1-.61-.61v-2.69a.61.61,0,0,1,1.22,0v2.69A.61.61,0,0,1,555.34,230.53Z" transform="translate(-312.35 -117.46)"/><path class="cls-8" d="M559.11,226.84H556.7a.61.61,0,0,1,0-1.22h2.42a.61.61,0,0,1,0,1.22Z" transform="translate(-312.35 -117.46)"/><path class="cls-8" d="M554,226.84h-2.42a.61.61,0,0,1,0-1.22H554a.61.61,0,0,1,0,1.22Z" transform="translate(-312.35 -117.46)"/><path class="cls-7" d="M414.28,159.48a3.89,3.89,0,1,1,3.89-3.89A3.89,3.89,0,0,1,414.28,159.48Zm0-1.22a2.67,2.67,0,1,0-2.67-2.67A2.67,2.67,0,0,0,414.28,158.26Z" transform="translate(-312.35 -117.46)"/><path class="cls-8" d="M428.43,172.32a3.89,3.89,0,1,1,3.89-3.89A3.89,3.89,0,0,1,428.43,172.32Zm0-1.22a2.67,2.67,0,1,0-2.67-2.67A2.67,2.67,0,0,0,428.43,171.1Z" transform="translate(-312.35 -117.46)"/><path class="cls-7" d="M433.56,150.1a.61.61,0,0,0-.61-.61h-2.69a.61.61,0,1,0,0,1.22H433A.61.61,0,0,0,433.56,150.1Z" transform="translate(-312.35 -117.46)"/><path class="cls-7" d="M438.26,150.1a.61.61,0,0,0-.61-.61H435a.61.61,0,1,0,0,1.22h2.69A.61.61,0,0,0,438.26,150.1Z" transform="translate(-312.35 -117.46)"/><path class="cls-7" d="M434.57,153.87v-2.41a.61.61,0,1,0-1.22,0v2.41a.61.61,0,1,0,1.22,0Z" transform="translate(-312.35 -117.46)"/><path class="cls-7" d="M434.57,148.74v-2.42a.61.61,0,1,0-1.22,0v2.42a.61.61,0,1,0,1.22,0Z" transform="translate(-312.35 -117.46)"/><path class="cls-8" d="M405.09,171.1a.61.61,0,0,0-.61-.61h-2.69a.61.61,0,0,0,0,1.22h2.69A.61.61,0,0,0,405.09,171.1Z" transform="translate(-312.35 -117.46)"/><path class="cls-8" d="M409.8,171.1a.61.61,0,0,0-.61-.61H406.5a.61.61,0,0,0,0,1.22h2.69A.61.61,0,0,0,409.8,171.1Z" transform="translate(-312.35 -117.46)"/><path class="cls-8" d="M406.1,174.87v-2.41a.61.61,0,0,0-1.22,0v2.41a.61.61,0,1,0,1.22,0Z" transform="translate(-312.35 -117.46)"/><path class="cls-8" d="M406.1,169.74v-2.42a.61.61,0,0,0-1.22,0v2.42a.61.61,0,1,0,1.22,0Z" transform="translate(-312.35 -117.46)"/><rect class="cls-8" x="222.96" y="12.14" width="22.25" height="22.25" rx="7.15" ry="7.15"/><path class="cls-16" d="M539.32,138.06a3,3,0,1,1,3,3.14A2.89,2.89,0,0,1,539.32,138.06Zm9.61-3h2.72L544,146.35h-2.72Zm-5.91,3c0-1.08-.35-1.4-.71-1.4s-.71.32-.71,1.4.36,1.4.71,1.4S543,139.14,543,138.06Zm4.55,5.31a3,3,0,1,1,3,3.14A2.89,2.89,0,0,1,547.57,143.37Zm3.7,0c0-1.08-.35-1.4-.71-1.4s-.71.32-.71,1.4.35,1.4.71,1.4S551.27,144.45,551.27,143.37Z" transform="translate(-312.35 -117.46)"/><rect class="cls-8" x="55.16" y="103.78" width="22.25" height="22.25" rx="7.15" ry="7.15"/><path class="cls-16" d="M379.9,237.89v1.71h-2.17V238a9.07,9.07,0,0,1-4-1.08l1.17-2.65a7.4,7.4,0,0,0,3.56,1c1,0,1.4-.22,1.4-.59,0-1.36-6-.26-6-4.28,0-1.74,1.26-3.21,3.79-3.56v-1.68h2.17v1.65a8,8,0,0,1,3.13.89l-1.09,2.64a6.65,6.65,0,0,0-3-.8c-1.06,0-1.4.31-1.4.68,0,1.29,6,.21,6,4.19C383.49,236,382.29,237.47,379.9,237.89Z" transform="translate(-312.35 -117.46)"/></g></g></svg>